<svg width="120" height="120" viewBox="0 0 120 120" fill="none" xmlns="http://www.w3.org/2000/svg">
<path d="M55.435 22.0486C56.8209 17.7834 57.5139 15.6508 58.5548 15.0786C59.4547 14.5838 60.5453 14.5838 61.4452 15.0786C62.4861 15.6508 63.1791 17.7834 64.565 22.0486L70.9617 41.7341C71.3491 42.9261 71.5427 43.5221 71.9075 43.963C72.2296 44.3524 72.6449 44.654 73.1147 44.84C73.6468 45.0507 74.2734 45.0507 75.5268 45.0507H96.2262C100.711 45.0507 102.954 45.0507 103.82 45.8638C104.569 46.5669 104.906 47.6041 104.713 48.6129C104.491 49.7797 102.676 51.0978 99.0474 53.7341L82.3019 65.8994C81.2878 66.6361 80.7808 67.0045 80.4741 67.4877C80.2033 67.9144 80.0447 68.4025 80.013 68.9069C79.977 69.4781 80.1707 70.0741 80.5581 71.2662L86.9544 90.9506C88.3405 95.2161 89.0335 97.3488 88.5278 98.4235C88.0905 99.3528 87.2083 99.9938 86.1894 100.123C85.011 100.271 83.1967 98.9535 79.5682 96.3174L62.8212 84.151C61.8073 83.4144 61.3003 83.0461 60.746 82.9038C60.2566 82.7781 59.7434 82.7781 59.254 82.9038C58.6997 83.0461 58.1927 83.4144 57.1788 84.151L40.4318 96.3174C36.8033 98.9535 34.989 100.271 33.8106 100.123C32.7917 99.9938 31.9095 99.3528 31.4722 98.4235C30.9665 97.3488 31.6595 95.216 33.0456 90.9506L39.4419 71.2662C39.8293 70.0741 40.023 69.4781 39.987 68.9069C39.9553 68.4025 39.7967 67.9144 39.5259 67.4877C39.2192 67.0045 38.7122 66.6361 37.6981 65.8994L20.9526 53.7341C17.3238 51.0978 15.5094 49.7797 15.2868 48.6129C15.0943 47.6041 15.4313 46.5669 16.18 45.8638C17.0458 45.0507 19.2885 45.0507 23.7738 45.0507H44.4732C45.7266 45.0507 46.3532 45.0507 46.8853 44.84C47.3551 44.654 47.7704 44.3524 48.0925 43.963C48.4573 43.5221 48.6509 42.9261 49.0383 41.7341L55.435 22.0486Z" fill="white" style="fill:white;fill-opacity:1;"/>
</svg>
